<?xml version="1.0" standalone="no"?>
<!DOCTYPE svg PUBLIC "-//W3C//DTD SVG 20010904//EN"
 "http://www.w3.org/TR/2001/REC-SVG-20010904/DTD/svg10.dtd">
<svg version="1.0" xmlns="http://www.w3.org/2000/svg"
 width="1280.000000pt" height="1280.000000pt" viewBox="0 0 1280.000000 1280.000000"
 preserveAspectRatio="xMidYMid meet">
<metadata>
Created by potrace 1.15, written by Peter Selinger 2001-2017
</metadata>
<g transform="translate(0.000000,1280.000000) scale(0.100000,-0.100000)"
fill="#000000" stroke="none">
<path d="M5310 12041 c-118 -38 -219 -167 -310 -396 -98 -246 -158 -509 -285
-1260 -104 -606 -145 -818 -163 -836 -21 -20 -218 -143 -367 -229 -325 -186
-469 -328 -451 -443 19 -124 204 -272 464 -372 39 -16 72 -34 72 -41 0 -15
-129 -388 -193 -559 -65 -172 -186 -474 -332 -825 -302 -728 -404 -1051 -460
-1465 -21 -153 -21 -423 0 -569 26 -186 84 -385 159 -549 29 -63 33 -86 39
-187 18 -310 176 -602 495 -912 194 -188 226 -208 117 -72 -178 223 -308 444
-375 638 -17 47 -30 91 -30 96 0 16 128 -133 192 -224 32 -45 83 -130 114
-190 52 -102 182 -326 189 -326 2 0 -15 50 -36 111 -21 60 -39 115 -39 120 0
5 33 -19 73 -53 39 -35 82 -71 94 -79 16 -11 28 -36 38 -80 l15 -64 -5 55 c-2
30 -7 89 -11 130 l-6 75 102 -100 c56 -55 101 -95 99 -90 -2 6 -34 55 -70 110
-36 55 -85 134 -107 176 l-42 76 0 239 c0 417 20 518 230 1194 205 656 278
946 475 1865 53 248 119 560 146 694 27 134 51 246 54 249 17 18 143 -136 195
-238 l32 -64 -21 -111 c-32 -167 -40 -246 -41 -405 0 -229 38 -477 115 -750
210 -746 359 -1397 397 -1741 15 -139 13 -145 -107 -217 -165 -100 -282 -204
-388 -347 -107 -143 -129 -200 -306 -785 -102 -339 -120 -401 -236 -835 -147
-551 -154 -573 -187 -675 -40 -120 -66 -150 -135 -150 -63 0 -112 -27 -137
-75 -26 -51 -23 -103 13 -226 40 -133 47 -201 31 -339 -18 -163 -8 -194 89
-291 42 -42 84 -90 93 -107 17 -31 50 -43 63 -22 4 6 13 5 25 -3 16 -9 24 -9
41 1 12 8 25 10 32 4 20 -14 124 -12 137 3 6 8 18 11 25 9 7 -3 23 4 35 16
l21 21 -32 57 c-17 31 -59 93 -92 136 -86 112 -106 168 -107 284 0 51 6 125
14 165 24 122 55 296 76 432 43 268 97 435 310 955 143 349 197 469 342 750
202 393 282 524 395 649 53 60 223 204 230 197 2 -2 -3 -41 -11 -87 -26 -148
-36 -342 -46 -894 -10 -488 -27 -847 -61 -1235 -13 -159 -17 -171 -59 -194
-56 -30 -74 -62 -78 -136 -2 -55 1 -71 22 -105 14 -22 37 -64 52 -93 l26 -53
-7 -193 c-7 -183 -6 -194 14 -242 16 -38 32 -57 61 -73 21 -12 42 -30 45 -41
9 -28 54 -60 84 -60 14 0 39 7 55 15 15 8 34 15 42 15 7 0 41 19 74 41 84 58
81 84 -24 191 -55 56 -68 77 -86 135 -12 38 -25 121 -31 188 -5 66 -14 145
-19 176 -5 33 -5 189 0 375 11 374 26 520 99 939 36 206 46 252 159 715 117
477 116 468 107 729 -6 201 -5 221 14 281 11 36 27 113 35 170 8 58 40 206 70
330 57 235 172 670 179 676 2 2 11 -58 21 -134 71 -557 159 -1121 246 -1575
97 -507 131 -781 146 -1173 l7 -172 -38 -68 c-21 -38 -45 -80 -53 -94 -9 -14
10 0 41 30 l57 54 0 -109 c0 -59 2 -106 5 -104 2 3 9 61 15 129 6 68 14 129
18 134 4 6 9 -17 12 -52 l5 -63 57 50 c31 28 58 51 61 51 2 0 0 -26 -4 -57 -5
-32 -11 -76 -14 -98 -5 -38 -4 -39 9 -15 7 14 35 83 62 154 39 105 60 146 111
213 116 154 252 403 341 626 22 54 42 100 45 103 8 9 -2 -70 -24 -184 -52
-265 -187 -559 -406 -881 -46 -68 -82 -125 -80 -128 9 -8 250 262 328 366 203
272 319 535 354 802 19 140 19 236 0 409 -14 133 -14 136 11 260 76 379 83
772 23 1220 -52 389 -106 619 -400 1695 -94 341 -199 737 -234 880 -70 283
-156 658 -151 662 1 1 42 -27 92 -63 118 -86 196 -130 269 -148 85 -23 129
-21 161 8 24 20 28 32 32 89 6 86 -13 140 -95 275 -71 118 -127 190 -271 350
-95 107 -258 318 -324 422 -33 51 -37 67 -57 215 -131 968 -187 1270 -281
1521 -109 290 -198 378 -300 296 -19 -15 -47 -36 -62 -45 -28 -17 -28 -17 -28
8 0 18 -11 32 -39 50 -21 14 -43 36 -49 49 -14 31 -129 113 -192 137 -28 10
-65 19 -83 19 -17 1 -57 9 -87 20 -30 11 -75 19 -100 20 -61 0 -186 -27 -236
-51 -22 -10 -50 -19 -63 -19 -12 0 -43 -20 -70 -45 l-49 -45 -10 42 c-13 49
-74 142 -113 171 -30 21 -100 31 -139 18z m1196 -1428 c-4 -142 -9 -260 -12
-262 -6 -6 -93 25 -186 67 l-78 35 46 50 c25 28 52 63 60 78 7 15 35 56 61 91
45 58 67 101 93 171 5 15 13 27 16 27 4 0 4 -116 0 -257z m-1050 139 c5 -4 18
-29 28 -57 31 -84 76 -155 146 -229 77 -82 83 -101 70 -230 -9 -91 -31 -145
-77 -188 -36 -34 -104 -64 -167 -74 l-49 -7 7 139 c3 77 9 255 12 397 4 141 9
257 13 257 3 0 11 -4 17 -8z m812 -414 c70 -39 70 -39 -33 -54 -46 -6 -56 -14
-144 -102 -68 -69 -96 -91 -101 -81 -15 27 -22 99 -15 161 l7 63 72 30 c87 37
124 34 214 -17z m-41 -172 c-15 -14 -33 -48 -43 -82 -19 -68 -50 -134 -63
-134 -5 0 -28 18 -52 40 -38 34 -42 41 -27 50 9 5 53 41 97 80 45 38 89 70 98
70 12 0 10 -6 -10 -24z m153 -40 c0 -2 -22 -20 -49 -39 l-49 -36 1 -79 c1 -44
-1 -83 -5 -87 -9 -10 -79 17 -85 33 -3 7 1 19 8 28 7 8 27 45 44 82 30 61 35
67 81 83 27 9 50 17 52 18 1 0 2 -1 2 -3z m110 -40 c0 -8 -29 -29 -64 -46 -36
-16 -67 -36 -69 -43 -4 -9 -6 -9 -6 0 -1 9 122 101 137 103 1 0 2 -7 2 -14z
m-79 -133 c19 3 44 8 57 12 22 7 22 6 22 -75 0 -63 -3 -81 -13 -77 -7 3 -41
13 -76 22 -55 16 -62 21 -57 39 3 12 6 41 6 65 0 40 1 43 13 27 10 -14 22 -17
48 -13z m82 -935 c4 -172 14 -412 22 -533 8 -120 12 -221 10 -223 -8 -8 -166
131 -210 184 -94 115 -123 229 -90 353 9 35 27 78 39 95 40 53 74 156 82 241
7 84 36 169 63 185 9 5 30 10 47 10 l31 0 6 -312z m866 129 c25 -46 28 -56 13
-48 -30 16 -43 36 -49 78 -7 46 -6 44 36 -30z m-2934 -179 c-21 -73 -40 -138
-44 -144 -4 -7 -44 10 -111 48 -57 32 -110 58 -117 58 -24 0 -13 16 20 28 17
6 88 45 157 86 69 41 126 71 128 66 2 -5 -13 -69 -33 -142z m910 -375 c11 -21
54 -85 96 -143 85 -120 114 -166 123 -195 6 -20 2 -21 -81 -22 -49 -1 -110 -6
-137 -12 -32 -6 -57 -6 -71 1 l-22 10 18 101 c9 56 23 146 30 200 7 53 15 97
18 97 4 0 15 -17 26 -37z m219 -519 c9 -3 16 -12 16 -20 0 -17 -12 -18 -28 -2
-22 22 -16 33 12 22z m-41 -141 c-8 -20 -16 -16 -40 22 -31 47 -29 51 11 19
19 -15 32 -33 29 -41z m-116 -26 c12 -17 33 -48 48 -68 20 -28 25 -42 19 -64
l-7 -28 -16 34 c-10 19 -29 52 -43 74 -29 44 -44 85 -31 85 4 0 18 -15 30 -33z
m-437 -241 c-107 -505 -326 -1408 -536 -2215 -179 -686 -211 -840 -220 -1066
-10 -256 -26 -191 -39 160 -9 242 -11 233 162 980 166 719 228 948 453 1660
60 193 136 436 167 541 32 106 59 188 61 184 1 -4 -20 -114 -48 -244z m1374
-678 c-23 -85 -52 -346 -66 -598 -15 -269 -17 -636 -5 -1020 5 -151 5 -284 0
-310 -7 -33 -11 30 -16 235 -3 154 -13 348 -21 430 -8 83 -19 283 -26 445 -6
162 -15 354 -21 425 -6 72 -13 180 -16 241 l-6 111 30 33 c26 29 79 50 155 59
3 1 0 -23 -8 -51z m661 -733 c23 -110 119 -493 160 -645 65 -236 129 -683 171
-1185 17 -210 21 -722 6 -920 l-7 -100 -7 190 c-14 385 -136 1369 -294 2370
-30 193 -57 361 -60 375 -4 18 -3 21 4 10 5 -8 17 -51 27 -95z m-3318 -117
c-3 -8 -6 -5 -6 6 -1 11 2 17 5 13 3 -3 4 -12 1 -19z m-41 -169 c-34 -139 -78
-362 -92 -462 -3 -26 -8 -46 -11 -43 -7 6 25 216 53 346 29 134 76 312 81 307
2 -2 -12 -69 -31 -148z"/>
</g>
</svg>
